<mxfile host="app.diagrams.net" agent="Mozilla/5.0 (Windows NT 10.0; Win64; x64) AppleWebKit/537.36 (KHTML, like Gecko) Chrome/130.0.0.0 Safari/537.36" version="24.8.3">
  <diagram name="Página-1" id="SsLyZShVAim0zoMrcRgR">
    <mxGraphModel dx="970" dy="813" grid="1" gridSize="10" guides="1" tooltips="1" connect="1" arrows="1" fold="1" page="1" pageScale="1" pageWidth="827" pageHeight="1169" math="0" shadow="0">
      <root>
        <mxCell id="0" />
        <mxCell id="1" parent="0" />
        <mxCell id="cun6DrjsFkLUDz5nrGmf-6" style="rounded=0;orthogonalLoop=1;jettySize=auto;html=1;entryX=0.5;entryY=0;entryDx=0;entryDy=0;endArrow=none;endFill=0;" edge="1" parent="1" source="cun6DrjsFkLUDz5nrGmf-1" target="cun6DrjsFkLUDz5nrGmf-5">
          <mxGeometry relative="1" as="geometry" />
        </mxCell>
        <mxCell id="cun6DrjsFkLUDz5nrGmf-8" style="rounded=0;orthogonalLoop=1;jettySize=auto;html=1;endArrow=none;endFill=0;" edge="1" parent="1" source="cun6DrjsFkLUDz5nrGmf-1" target="cun6DrjsFkLUDz5nrGmf-4">
          <mxGeometry relative="1" as="geometry" />
        </mxCell>
        <mxCell id="cun6DrjsFkLUDz5nrGmf-9" style="rounded=0;orthogonalLoop=1;jettySize=auto;html=1;entryX=0;entryY=0.5;entryDx=0;entryDy=0;endArrow=none;endFill=0;" edge="1" parent="1" source="cun6DrjsFkLUDz5nrGmf-1" target="cun6DrjsFkLUDz5nrGmf-2">
          <mxGeometry relative="1" as="geometry" />
        </mxCell>
        <mxCell id="cun6DrjsFkLUDz5nrGmf-10" style="rounded=0;orthogonalLoop=1;jettySize=auto;html=1;entryX=0;entryY=0.5;entryDx=0;entryDy=0;endArrow=none;endFill=0;" edge="1" parent="1" source="cun6DrjsFkLUDz5nrGmf-1" target="cun6DrjsFkLUDz5nrGmf-3">
          <mxGeometry relative="1" as="geometry" />
        </mxCell>
        <mxCell id="cun6DrjsFkLUDz5nrGmf-1" value="Usuário" style="shape=umlActor;verticalLabelPosition=bottom;verticalAlign=top;html=1;outlineConnect=0;" vertex="1" parent="1">
          <mxGeometry x="160" y="360" width="40" height="80" as="geometry" />
        </mxCell>
        <mxCell id="cun6DrjsFkLUDz5nrGmf-2" value="Cadastrar Funcionário" style="ellipse;whiteSpace=wrap;html=1;" vertex="1" parent="1">
          <mxGeometry x="240" y="289" width="120" height="80" as="geometry" />
        </mxCell>
        <mxCell id="cun6DrjsFkLUDz5nrGmf-3" value="Deletar Usuário" style="ellipse;whiteSpace=wrap;html=1;" vertex="1" parent="1">
          <mxGeometry x="240" y="409" width="120" height="80" as="geometry" />
        </mxCell>
        <mxCell id="cun6DrjsFkLUDz5nrGmf-4" value="Atualizar Funcionário" style="ellipse;whiteSpace=wrap;html=1;" vertex="1" parent="1">
          <mxGeometry x="120" y="230" width="120" height="80" as="geometry" />
        </mxCell>
        <mxCell id="cun6DrjsFkLUDz5nrGmf-5" value="Consultar Funcionário" style="ellipse;whiteSpace=wrap;html=1;" vertex="1" parent="1">
          <mxGeometry x="120" y="489" width="120" height="80" as="geometry" />
        </mxCell>
        <mxCell id="cun6DrjsFkLUDz5nrGmf-11" value="Solicitar Confirmação de Exclusão" style="ellipse;whiteSpace=wrap;html=1;" vertex="1" parent="1">
          <mxGeometry x="220" y="585" width="120" height="80" as="geometry" />
        </mxCell>
        <mxCell id="cun6DrjsFkLUDz5nrGmf-12" value="&amp;lt;&amp;lt;include&amp;gt;&amp;gt;" style="edgeStyle=none;html=1;endArrow=open;verticalAlign=bottom;dashed=1;labelBackgroundColor=none;rounded=0;" edge="1" parent="1" source="cun6DrjsFkLUDz5nrGmf-5" target="cun6DrjsFkLUDz5nrGmf-11">
          <mxGeometry x="0.758" y="12" width="160" relative="1" as="geometry">
            <mxPoint x="170" y="570" as="sourcePoint" />
            <mxPoint x="370" y="600" as="targetPoint" />
            <mxPoint x="-1" as="offset" />
          </mxGeometry>
        </mxCell>
      </root>
    </mxGraphModel>
  </diagram>
</mxfile>